<?xml version="1.0" encoding="UTF-8" standalone="no"?>
<svg
   xmlns:dc="http://purl.org/dc/elements/1.1/"
   xmlns:cc="http://creativecommons.org/ns#"
   xmlns:rdf="http://www.w3.org/1999/02/22-rdf-syntax-ns#"
   xmlns:svg="http://www.w3.org/2000/svg"
   xmlns="http://www.w3.org/2000/svg"
   version="1.1"
   viewbox="0 0 580 480"
   width="15"
   xml:space="preserve"
   id="svg375"
   height="15"><metadata
   id="metadata381"><rdf:RDF><cc:Work
       rdf:about=""><dc:format>image/svg+xml</dc:format><dc:type
         rdf:resource="http://purl.org/dc/dcmitype/StillImage" /><dc:title></dc:title></cc:Work></rdf:RDF></metadata><defs
   id="defs379" />
                            <path
   d="m 14.649549,7.6779788 c -0.240053,0 -0.432094,-0.2063508 -0.432094,-0.4642894 V 2.9903763 c 0,-1.1486873 -0.870587,-2.08070513 -1.936416,-2.08070513 H 2.8006018 c -1.0690297,0 -1.93641611,0.93545763 -1.93641611,2.08070513 V 7.282473 c 0,0.2579385 -0.19204126,0.4642895 -0.43209284,0.4642895 C 0.19204126,7.7467625 0,7.5404115 0,7.282473 V 2.9903763 C 0,1.3292512 1.2578703,-0.01890806 2.8006018,-0.01890806 h 9.4804372 c 1.545932,0 2.800602,1.35159896 2.800602,3.00928436 v 4.2233131 c 0,0.2544994 -0.192041,0.4642894 -0.432092,0.4642894 z"
   id="path371"
   style="stroke-width:0.03317792" />
                            <path
   d="m 7.2367551,3.6678946 c 0.083218,-0.08942 0.1952419,-0.137568 0.3040654,-0.137568 0.1088234,0 0.2208474,0.04471 0.3040653,0.137568 l 2.7461912,2.9508167 c 0.169635,0.1822765 0.169635,0.4746068 0,0.6568834 -0.169637,0.1822765 -0.441697,0.1822765 -0.6113326,0 L 7.9729132,5.1157894 v 9.4199156 c 0,0.257938 -0.1920412,0.464289 -0.4320927,0.464289 -0.2400516,0 -0.4320929,-0.206351 -0.4320929,-0.464289 V 5.1157894 l -2.010032,2.1598053 c -0.1696364,0.1822765 -0.4416948,0.1822765 -0.6113313,0 -0.1696364,-0.1822766 -0.1696364,-0.4746069 0,-0.6568834 z"
   id="path373"
   style="stroke-width:0.03317792" />
                        </svg>